<svg version="1" xmlns="http://www.w3.org/2000/svg" width="2730.667" height="2730.667" viewBox="0 0 2048.000000 2048.000000"><path d="M82.4 547.5l-41.1 41 .2 401.5c.1 314.2.4 402.9 1.4 408 3.1 16.1 8.6 28.8 18.1 41.4 3.1 4.1 15.2 15.6 19.4 18.5 8.1 5.6 25.1 13.3 28.6 13 .3 0 1.7.4 3.2 1 8 3 38.4 3.1 46.2.1 1.1-.4 2.3-.8 2.6-.8 1.8-.1 6.8-1.7 8.9-2.8 1.4-.8 3.4-1.4 4.4-1.4.9 0 1.7-.3 1.7-.8 0-.4 2-1.6 4.5-2.7s4.5-2.3 4.5-2.7c0-.5.5-.8 1-.8 1.1 0 2.4-1 6.1-4.2 1-1 2.1-1.8 2.4-1.8 1.2 0 12-12 16.7-18.5 4.2-5.9 9.4-15.4 10.4-19 .2-.6 1-3 1.9-5.4 1.7-4.8 3-10.7 4-18.7.3-2.7.6-101.2.7-218.9v-214l4.6 9.5c2.6 5.2 6.9 14.2 9.6 20 2.7 5.8 7.1 15 9.7 20.5 2.5 5.5 6.2 13.4 8.2 17.5 4.6 9.9 10.2 21.8 17.2 36.5 3.1 6.6 6.8 14.5 8.2 17.5 1.4 3 4.8 10.2 7.6 16 2.8 5.8 5.1 10.7 5.2 11 .4 1.4 6.3 14.1 20 42.6 3.6 7.5 6.5 13.7 6.5 13.9 0 .1 2.9 6.3 6.4 13.6 7.5 15.9 11 23.2 11.1 23.9.1.3 2.2 4.8 4.7 10 5.2 10.9 10.4 21.8 19.4 40.9 3.5 7.3 6.4 14 6.4 14.7 0 .8.5 1.4 1 1.4.6 0 1 .4 1 .9s2.1 5.3 4.6 10.8c8.3 17.6 16.4 34.8 24.7 52.4 1.5 3.1 2.7 6.1 2.7 6.6 0 .6.6 1.6 1.4 2.2.7.6 1.6 2.4 1.9 4 .3 1.6 1.3 3.6 2.2 4.4.9.9 1.5 1.8 1.5 1.9-.3.8 3.2 8.6 18.4 40.7 10.4 21.8 15.6 32.9 19.3 41.1 1.4 3 5.8 12.4 9.9 20.8 4 8.3 7.6 16.1 7.9 17.2.3 1.1.9 2.1 1.3 2.1.4.1 33.6.3 73.7.4 56.5.2 73.5-.1 75-1 1.1-.7 4.3-3.5 7.1-6.1 2.8-2.7 8.6-8.2 13-12.3 4.3-4.1 13.5-12.7 20.4-19.2 6.9-6.5 15.3-14.4 18.8-17.6l6.4-5.9-.1-410.4c0-225.8-.3-412.1-.6-414-1.8-11.1-2.4-13.6-4.1-18.8-3.2-9.5-7.4-17.3-13.5-25.4-5.5-7.4-9.1-11-20.4-20.4-3.7-3-16.5-9.5-22.5-11.4-2.5-.7-5-1.7-5.6-2.2-.6-.4-1.3-.6-1.5-.3-.3.2-2.2 0-4.4-.6-9.1-2.2-24.4-2.9-35.5-1.6-7.6.9-8.5 1.1-17 4.1-4.1 1.5-8 2.8-8.5 2.9-.6.1-2.8 1.3-4.8 2.5-2.1 1.2-4.1 2.2-4.4 2.2-1.1 0-14 10.6-18.1 14.9-6.9 7.3-14.8 18.3-19.3 27.1-3.8 7.3-7.1 18.5-8.5 28.5-.3 2.7-.8 5.3-1.1 5.7-.2.5.1.8.7.8.7 0 .8.6.2 1.7-.4 1-.8 97.8-.7 215 0 117.3-.1 213.3-.3 213.3-.3 0-3.4-6.5-12.2-25.5-4.3-9.3-8.7-18.7-14.7-31.5-2.8-5.8-6-12.8-7.3-15.5-1.2-2.8-4-8.7-6.1-13.3-2.2-4.5-3.9-8.7-3.9-9.2 0-.6-.4-1-.8-1-.5 0-.9-.6-.9-1.3 0-.6-3.2-7.9-7.2-16.1-3.9-8.2-7.1-15-7.1-15.1 0-.2-2.2-5-13.3-28.5-1.7-3.6-3.1-6.7-3.2-7 0-.3-1.6-3.7-3.5-7.5-1.8-3.9-3.4-7.2-3.5-7.5-.2-.7-3.7-8.4-10.6-22.9-3.3-6.8-5.9-12.5-5.9-12.6 0-.2-3-6.5-6.6-14.1-8.4-17.8-10.7-22.8-10.6-23.4 0-.3-.8-1.9-1.9-3.6-1-1.7-1.6-3.4-1.2-3.7.3-.4.1-.7-.5-.7-.7 0-1.2-.4-1.2-.9s-1.9-4.9-4.1-9.8c-12.1-25.9-18.6-39.8-23-49.1-2.7-5.7-4.9-11-4.9-11.8 0-.8-.4-1.4-.9-1.4s-1.3-1-1.7-2.3c-.8-2.6-3.6-8.9-11.5-25.6-3.3-6.8-5.9-12.5-5.9-12.6 0-.2-3.1-6.9-7-15-3.8-8.1-7-14.8-7-15 0-.1-2.4-5.4-5.4-11.6-2.9-6.3-6.5-13.9-7.9-16.9-3.4-7.5-12.8-27.6-21-45-2.4-5.2-5.7-12.2-7.2-15.5-1.5-3.3-3.9-8.5-5.3-11.5s-2.5-5.8-2.4-6.3c.1-.4-.3-.7-.8-.7s-.9-.3-.9-.8c.4-1.9-2.5-7.2-3.9-7.3-1-.1-30.3-.2-65.2-.3l-63.5-.2-41.1 41.1zm133.4-5.5c1.1 1.9 9.2 17.9 18.2 35.5 8.9 17.6 17.1 33.5 18.2 35.2 1.1 1.8 1.6 3.3 1.1 3.3-.4 0-.3.4.2.8.6.4 4.2 7 8.1 14.7 3.9 7.7 12.9 25.2 19.9 39 7 13.7 13.2 25.6 13.7 26.2.6.7.7 1.3.3 1.3-.4 0-.3.6.3 1.2.5.7 6.3 11.6 12.7 24.3 16.2 31.7 23.1 45.1 24.1 46.6.5.8.9 1.6 1 1.9.2 1.4 4 8.5 4.7 8.8.4.2.7 1.2.7 2.2 0 .9.7 2.3 1.5 3 .9.7 1.3 1.5 1 1.8-.3.3-.1 1 .4 1.6.9 1.2 12.8 24.3 35.9 69.6 24 47.2 38 74.7 49.7 97.5 23.4 45.5 26.3 51.5 25.7 51.5-.4 0-.2.4.3.8.6.4 4 6.5 7.7 13.7 11.1 21.8 21.9 42.9 23.1 45 .6 1.1 1.2 2.2 1.2 2.5.1.5 3.4 7.1 16.5 32.5 4.5 8.8 15.4 30.2 24.2 47.5 8.9 17.3 18.4 36 21.3 41.5 2.9 5.5 9.6 18.8 15 29.5s10.2 19.6 10.7 19.8c.4.2.8 1 .8 1.7s2.6 6.4 5.9 12.7c3.2 6.2 10.1 19.6 15.3 29.8 5.3 10.2 10.4 20.1 11.4 22 1 1.9 1.9 3.7 1.9 4 .1.3 1.1 2.5 2.3 5 1.8 3.8 2.2 4.1 2.3 2 .1-1.4.2-173.7.3-383 .1-244.3.4-381 1.1-382 .5-.8 1-2.1 1.2-2.9.2-1.9 6.3-8 9.7-9.8 3.4-1.8 10.5-1.9 13.8-.3 3.8 2 8.8 7.2 10.6 11 1.4 3.2 1.6 39.1 1.7 406.1l.1 402.7-28.1-.1-28.1-.1-5.3-10c-2.9-5.6-10.3-20-16.5-32.1-6.2-12.1-13.6-26.3-16.3-31.5-2.8-5.2-8.5-16.2-12.7-24.5-4.2-8.2-8.2-15.5-8.7-16.2-.6-.6-1.2-1.8-1.3-2.5-.1-.7-.4-1.8-.8-2.3-.3-.6-4.1-7.8-8.3-16-7-13.5-17.8-34.4-22.7-43.5-1-1.9-1.8-4-1.8-4.7 0-.6-.3-1.3-.8-1.5-.4-.2-3.6-5.9-7.1-12.8-3.5-6.9-9.9-19.3-14.1-27.5-4.3-8.3-9.7-18.8-12.1-23.5-2.4-4.7-4.7-8.7-5.2-8.8-.4-.2-.7-.9-.7-1.5 0-1.1-6-13.7-7-14.7-.3-.3-3.6-6.6-7.4-14-3.8-7.4-9.7-18.9-13.1-25.5-3.5-6.6-8.8-16.9-11.9-22.9-3.1-6-6-11.4-6.5-12-.5-.6-.9-1.3-.9-1.6 0-.7-2.6-6.4-3.2-7-.3-.3-4.5-8.4-9.4-18S391 964.3 389 960.5c-2.1-3.9-8.8-16.9-15-29-6.2-12.1-13.6-26.5-16.5-32-5.6-10.7-14.5-28-29.5-57-5.1-9.9-12.4-24.1-16.3-31.5-3.9-7.4-8.8-17.1-11-21.5-2.2-4.4-4.6-8.7-5.3-9.5-.7-.8-1.2-1.8-1.1-2.1.2-.6-3.4-8-4.3-8.9-.3-.3-3.8-7-7.9-15-4-8-10.4-20.4-14.1-27.5-3.7-7.2-11.4-22-17-33s-12.2-23.6-14.5-28c-2.3-4.4-8.9-17-14.5-28s-13-25.2-16.3-31.5c-3.3-6.3-6.7-12.7-7.5-14.3-.7-1.5-1.5-2.7-1.6-2.7-.2 0-.3 169.1-.3 375.7 0 206.7-.3 377.6-.7 379.8-1.7 9.7-7.4 14.5-17.6 15-10 .4-16.8-3.8-19.1-12-.9-3-1.2-105.6-1.2-405.6 0-220.9.2-402 .5-402.5.4-.5 12.8-.9 28.2-.9l27.6.1 1.8 3.4zM779.3 518.9c-6.5 6.8-14 14.7-16.8 17.6-2.7 2.9-11.7 12.3-20 21-8.2 8.7-19.6 20.6-25.2 26.4L707 594.5v6c-.1 6.4-.1 859.1 0 868.5v5.6l201.3-.2c110.6 0 203.2-.4 205.7-.7 2.5-.4 6.5-.9 9-1.1 5-.5 9.1-1.2 16.5-2.6 2.8-.6 6.1-1.2 7.5-1.5 4.9-.9 19-4.7 23-6.2.8-.3 2-.7 2.5-.8 1.3-.4 12-4.3 17-6.3 15.4-6.2 44.3-22.9 59-34 13.2-10.1 37.5-32.8 37.5-35.1 0-.5.4-1.1.9-1.3 1.2-.4 11.7-13.2 16.6-20.3 2.2-3.2 4.6-6.3 5.3-7.1.6-.7 1.2-1.5 1.2-1.7 0-.3 2.3-4.2 5-8.6 2.8-4.4 5-8.4 5-8.9 0-.4.6-1.4 1.3-2 .6-.7 1.2-1.6 1.3-2 0-.4 2.4-5.4 5.2-11.2 9-18.8 18.3-46.7 20.8-62.4.3-2.1.8-4.8 1-6 1.2-5.7 1.6-8.5 1.9-13.6.2-3 .5-5.5.5-5.5.9 0 1.4-84.1.6-94.5-1.2-14.6-2.2-22-5.1-36.5-7.1-35.8-25.5-75-49.8-106.5l-6.6-8.5 3.3-3.5c8.1-8.6 27.6-36 27.6-38.8 0-.6.3-1.2.8-1.4 2-.9 12.1-23.2 17-37.3 4.6-13.5 8.8-31.5 10.6-46 2.5-19.3 2.6-22.3 2.5-66 0-49.3-.5-56.3-5.3-80-3.3-16.3-11.5-39.9-19.8-56.8-2.6-5.4-4.8-10.2-4.8-10.7 0-.6-.4-1-1-1-.5 0-1-.9-1-2s-.4-2-.9-2-1.3-1-1.7-2.3c-.4-1.2-1.7-3.6-3-5.3-1.3-1.7-2.4-3.4-2.4-3.8 0-.3-2.5-4.3-5.6-8.9-13.8-20.1-33-41.4-50.4-55.8-9.2-7.5-27.4-20.9-28.6-20.9-.3 0-1.8-.8-3.2-1.9-10.4-7.3-43.4-22.7-57.7-26.8-8.4-2.4-15.9-4.5-18-4.9-5.3-1.2-17.3-3.6-20-3.9-7-1-13.3-1.8-17-2-2.2-.2-4.2-.4-4.5-.5-.3-.1-71.7-.3-158.7-.4l-158.2-.1-11.8 12.4zm371.7 20.4c1.9.3 6.2.8 9.5 1.2 3.3.4 6.3.9 6.6 1.1.3.2 1.9.6 3.5.8 14.4 2.7 30.4 8.4 46.4 16.8 9.5 4.9 26.2 15.6 31.1 20 1.5 1.3 5.1 4.3 8 6.8 17.2 14.6 32.5 34.4 44.2 57.3 4.7 9.1 10.4 22.5 11.1 26 .2.6.6 2 1 2.9.4.9.9 2.2 1 3 .1.7.8 3.1 1.4 5.3.6 2.2 1.3 5.1 1.6 6.5.3 1.4.8 3.6 1.1 5 1.2 4.9 2.1 11.2 3 21.5.9 9.5.4 87-.5 87-.1 0-.3 1.2-.5 2.6-.7 5.7-1.5 10.1-2.5 14.1-.6 2.4-1.2 5.2-1.4 6.4-.2 1.1-.6 2.6-1 3.2-.4.7-.9 2-1.1 2.9-1.7 8.8-11 28.3-19.1 40.3-5.3 7.9-19.1 26.9-20.4 28-.3.3-1.8 2.1-3.4 4-7.9 9.8-29.3 32.8-38.3 41.3-2.4 2.2-4.3 4.4-4.3 4.9s1.6 2.3 3.6 4.1c23.4 21.1 42.9 41.4 52.9 55.3 1.1 1.5 2.5 3.2 3 3.8 2 2.1 10.8 16 14.6 23 5.9 11.2 12.3 28.6 14.4 39.6.3 1.4.8 3.6 1.1 5 .6 2.5 1 5 2 13 .3 2.5.7 5.8.9 7.5.5 3 .6 75.8.2 86.7-.1 3.2-.4 5.8-.7 5.8-.4 0-.6 1-.6 2.2-.1 3.8-2.2 16.2-3.1 18.8-.4.8-.8 2.6-1 4-2.1 13.3-19.1 49-30.7 64.3-11.6 15.4-24.1 28.1-38.6 39.3-7.7 5.9-20 14-24.4 16-1.7.8-4.4 2.3-6.1 3.2-11.7 6.9-39 16-53.5 17.7-2.5.3-5.6.8-7 1.2-1.4.3-76.6.7-167.2.8l-164.8.2V949.5c0-225.6.2-410.4.4-410.6.6-.6 323.4-.2 327.6.4z"/><path d="M863 579.4c0 2.5-.1 338.4 0 341.9v3.8l142.8-.4c78.5-.2 144.5-.7 146.7-1.1 12.4-2.4 27.9-7.1 37-11.2 3.3-1.5 6.2-2.8 6.5-2.8 1.5-.3 17.4-10 23-14.1 13.5-9.9 29.7-27.6 39.4-42.8 4.7-7.5 12.7-22.7 12-22.7-.4 0-.2-.6.3-1.3 1.9-2.4 7-18.5 8-25.2.2-1.7.7-4.1.9-5.5 1.3-6.1 1.7-16.5 1.7-45 .1-33-.5-43.3-2.9-54-.3-1.4-.8-3.6-1-5-2.3-13-13.9-38.4-24.2-53-11.4-16.1-30-33.5-44.7-41.8-9.3-5.2-17.5-9.2-17.5-8.5 0 .5-.4.3-.8-.2-1.2-1.7-19.5-7.5-29-9.1-4.8-.8-9.8-1.8-11.2-2.1-5-1.1-287-1-287 .1zm241 117c30.5 6.8 54.4 30.2 59.4 58.1.3 1.6.8 4.1 1.1 5.5 1.1 4.6.6 65.4-.5 70.5-.6 2.7-1.3 6.1-1.6 7.4-3.8 17.4-23.8 39.7-43.3 48.4-2.5 1.1-8.2 3.1-12.6 4.3l-8 2.3-101.1.1H896.3v-98.7c0-54.4.3-99 .7-99.3.5-.3 45.5-.5 100.2-.4 89 .1 100.1.3 106.8 1.8zM864.6 971c-.2.3-.3 78.6-.2 174l.1 173.5 137.5-.1c75.6 0 140.2-.4 143.5-.8 18.3-2.3 41.9-10.6 56-19.7 1.7-1 3.7-2.2 4.5-2.6.8-.4 3.8-2.3 6.5-4.2 17.8-12.4 33.9-29.2 46-47.9 5.4-8.5 14.6-27.2 13.9-28.4-.3-.4-.1-.8.4-.8s1.3-1.5 1.7-3.3c.4-1.7.9-3.7 1.1-4.2 4.8-13.9 5.7-22.8 5.7-61 .1-28.3-.6-46.6-1.7-48.4-.3-.4-.7-2.9-1.1-5.5-.3-2.7-.8-5.3-1.2-6-.4-.6-.8-1.7-.8-2.6-.2-1.7-3.2-11.4-4.5-14.5-6.3-14.4-17.7-35-20.9-37.5-.3-.3-2.3-2.6-4.4-5.2-12.3-15.4-31.4-30.3-50.6-39.7-14.1-6.9-27.7-11.1-47.6-14.7-4.6-.8-283.5-1.3-283.9-.4zm225.7 116.1c4.8.1 11.6.8 15 1.6 7.3 1.7 18.5 6 20.8 7.9.8.8 1.9 1.4 2.2 1.4 2.4 0 14.4 10.4 20.3 17.5 4 4.8 10.3 15.1 10.8 17.7.2.7.8 2.6 1.5 4.3 1.3 3.2 3 10.9 3.7 16.5.6 5 .6 60.7 0 65.5-1.4 11.2-6.5 23.9-13.4 33.5-3.1 4.3-17.7 18.6-20.7 20.3-13.8 7.7-21.9 10.9-31 12.3-2.7.4-49.5.8-104 .8l-99 .1-.1-100-.1-100 92.6.2c50.9.1 96.6.2 101.4.4zM1450.7 506.6c-.1.1-2.2.4-4.7.8-8.8 1.1-10.9 1.5-15.1 2.6-2.3.6-5.3 1.6-6.8 2.2-1.4.6-2.8 1.2-3.1 1.2-1.8.4-14 7.2-14 7.8 0 .5-.4.8-1 .8-2 0-16 13.2-21.5 20.4-6.9 8.9-13.5 22.6-16.4 34.1-3.3 12.7-3.5 32.7-.6 47 6.5 31.7 34.3 60.1 68.2 69.6 7.7 2.2 9 2.3 81.3 2.5 40.4.2 74.6.4 76 .4h2.6l-.1 295.7v295.8l-69.5.2c-38.2.1-69.9.3-70.5.4-.5.1-1.8 0-2.8-.1-1-.1-5.1.4-9 1-9.7 1.7-9.6 1.6-14.5 3.4-2.3.8-4.5 1.5-4.7 1.5-1 0-16.9 8.1-17.5 8.9-.3.4-2.3 1.9-4.5 3.4-9.7 6.4-22 20.7-28 32.8-3.5 7-6.6 16-5.9 17.1.3.5 0 .9-.7.9s-1 .2-.7.6c.3.3.2 2.2-.3 4.2-2.4 9.6-1.7 30.6 1.5 45 2.2 10.2 10.7 26.1 18.8 35.4 1.3 1.4 3 3.5 3.9 4.5.8 1 3.7 3.6 6.4 5.8 14.8 12.3 29.9 18.9 48.5 21.2 7.5 1 477.1.9 484-.1 5.1-.7 14.6-3 18-4.3.8-.4 1.7-.7 2-.8.3-.1 1.8-.7 3.3-1.3 1.6-.7 3.2-1.2 3.7-1.2s1-.3 1.2-.8c.2-.4 2.1-1.6 4.3-2.7 2.2-1.1 4.2-2.2 4.5-2.5.3-.3 2.5-1.9 4.9-3.5 4.4-2.9 15.6-13.6 19.6-18.5 9.4-11.6 14.6-24.4 18-44 .9-4.8.9-19.8 0-25.1-.3-2.4-.8-5.6-1.1-7-2.4-15.7-14.3-36.9-27.6-49.4-6.5-6.1-13.7-11.5-15.5-11.5-.7 0-1.3-.4-1.3-.8 0-.9-14-7.4-16.6-7.8-.7-.1-4.1-.9-7.6-1.7-10.8-2.6-18.4-2.9-88.8-2.9h-68.5V696h3c1.7 0 35-.2 74-.4 39.1-.1 72.2-.6 73.7-.9 28-7.1 54.3-28.6 67.6-55.2 15.3-30.7 11.4-70.7-9.3-96.5-4.5-5.7-16.4-16.4-22.6-20.6-6.7-4.4-21.9-11.9-21.9-10.8 0 .4-.7.1-1.5-.6s-1.5-.9-1.5-.6c0 .4-.8.2-1.7-.3-1-.5-3.6-1.2-5.8-1.5-2.2-.4-5.6-.9-7.5-1.3-2.8-.5-477.7-1.2-478.3-.7zm515 34.7c12.7 8.8 14.5 22.4 4.4 32.5-6.3 6.3-.3 5.9-112.2 6-56.3 0-103.8.1-105.6.1l-3.2.1v740h106c114.2 0 109-.2 115 5.2 4.8 4.3 6.3 7.6 6.3 14.1 0 6.8-1.7 11-6.2 15.2-5.8 5.5 9.1 5.2-242.2 5.1l-233.5-.1-4-2.1c-4.4-2.3-8.4-7.4-8.5-10.8-.5-13.8.4-17.9 4.7-21.8 1.7-1.5 8.4-4.8 9.8-4.8h107.9c106.5 0 107.4 0 107.9-2 .3-1.1.2-2-.1-2-.4 0-.6-2.1-.4-4.7.2-4.4.2-7.2.1-10.6 0-.6.1-2.8.3-4.8.2-2 .1-4.5-.2-5.5-.4-1.1-.4-3.1.1-4.7.4-1.5.4-2.7-.1-2.7s-.5-1.3 0-3c.5-1.9.5-3.2-.2-3.6-.6-.4-.6-1 0-1.6.7-.7.7-1.9.2-3.4-.5-1.3-.6-2.4-.1-2.4.4 0 .5-2 .1-4.3-.3-2.4-.3-5.2 0-6.3.4-1 .4-2.9-.1-4-.4-1.2-.5-2.4-.3-2.7.9-.9 1-7.1.2-9-.5-1-.5-1.7.1-1.7.5 0 .6-1.2.2-2.7-.4-1.6-.4-4.3 0-6.1.4-1.9.3-3.2-.3-3.2-.5 0-.6-.5-.3-1.1 1-1.5 1.2-7.9.3-7.9-.3 0-.3-1.2.1-2.8.4-1.5.5-3.8.1-5.2-.4-1.4-.3-3.7.1-5.3.5-1.6.4-2.7-.2-2.7-.6 0-.6-.7 0-1.9.6-1 .8-2.1.5-2.4-.6-.5-.7-7.2-.3-16 .1-2.6-.1-5-.4-5.3-.3-.3-.1-1.9.3-3.5.5-1.8.5-2.9-.1-2.9s-.6-.7 0-1.9c.6-1 .8-2.1.5-2.4-.4-.3-.6-5.3-.5-11.1.2-11 .2-12.1.1-15.9 0-1.2.1-3.6.3-5.3.2-1.8 0-4-.4-5-.3-1.1-.3-3.1.2-4.7.4-1.5.4-2.7-.1-2.7s-.5-1.3 0-3c.5-1.9.5-3.2-.2-3.6-.6-.4-.6-1 0-1.6.7-.7.7-1.9.2-3.4-.5-1.3-.6-2.4-.1-2.4.4 0 .5-2 .1-4.3-.3-2.4-.3-5.2 0-6.3.4-1 .4-2.8 0-3.9s-.4-2.9 0-4 .4-2.9 0-4-.4-2.9 0-4 .4-3-.1-4.1c-.4-1.2-.6-2.4-.3-2.7.8-.8 1-7.4.4-9.3-.4-1.1-.4-3.1.1-4.7.4-1.5.4-2.7-.1-2.7s-.5-1.3 0-3c.5-1.9.5-3.2-.2-3.6-.6-.4-.6-1 0-1.6.7-.7.7-1.9.2-3.4-.5-1.3-.6-2.4-.1-2.4.4 0 .5-2 .1-4.3-.3-2.4-.3-5.2 0-6.3.4-1 .4-2.8 0-3.9s-.4-2.9 0-4 .4-2.9 0-4-.4-2.9 0-4 .4-3-.1-4.1c-.4-1.2-.6-2.4-.3-2.7.8-.8 1-7.4.4-9.3-.4-1.1-.4-3.1.1-4.7.4-1.5.4-2.7-.1-2.7s-.5-1.3 0-3c.5-1.9.5-3.2-.2-3.6-.6-.4-.6-1 0-1.6.7-.7.7-1.9.2-3.4-.5-1.3-.6-2.4-.1-2.4.4 0 .5-2 .1-4.3-.3-2.4-.3-5.2 0-6.3.4-1 .4-2.8 0-3.9s-.4-2.9 0-4 .4-2.9 0-4-.4-2.9 0-4 .4-3-.1-4.1c-.4-1.2-.6-2.4-.3-2.7.8-.8 1-7.4.4-9.3-.4-1.1-.4-3.1.1-4.7.4-1.5.4-2.7-.1-2.7s-.5-1.3 0-3c.5-1.9.5-3.2-.2-3.6-.6-.4-.6-1 0-1.6.7-.7.7-1.9.2-3.4-.5-1.3-.6-2.4-.1-2.4.4 0 .5-2 .1-4.3-.3-2.4-.3-5.2 0-6.3.4-1 .4-2.8 0-3.9s-.4-2.9 0-4c.6-1.8.3-7.5-.5-8.3-.2-.2.1-1.7.5-3.3.5-1.8.5-2.9-.1-2.9s-.6-.7 0-1.9c.6-1 .8-2.1.5-2.4-.6-.5-.7-7.2-.3-16 .1-2.6-.1-5-.4-5.3-.3-.3-.1-1.9.3-3.5.5-1.8.5-2.9-.1-2.9s-.6-.7 0-1.9c.6-1 .8-2.1.4-2.4-.7-.8-.6-17.7.1-18.5.3-.2.1-1.3-.5-2.3-.6-1.2-.6-1.9 0-1.9.5 0 .6-1.2.2-2.8-.4-1.5-.4-4.2 0-6 .4-1.9.3-3.2-.3-3.2-.5 0-.6-.5-.3-1.1.9-1.3 1.2-7.9.5-7.9-.3 0-.4-2.1-.2-4.7.2-4.4.2-7.2.1-10.6 0-.6.1-2.8.3-4.8.2-2 .1-4.5-.2-5.5-.4-1.1-.4-3.1.1-4.7.4-1.5.4-2.7-.1-2.7s-.5-1.3 0-3c.5-1.9.5-3.2-.2-3.6-.6-.4-.6-1 0-1.6.7-.7.7-1.9.2-3.4-.5-1.3-.6-2.4-.1-2.4.4 0 .5-2 .1-4.3-.3-2.4-.3-5.2 0-6.3.4-1 .4-2.9-.1-4-.4-1.2-.5-2.4-.3-2.7.9-.9 1-7.1.2-9-.5-1-.5-1.7.1-1.7.5 0 .6-1.2.2-2.8-.4-1.5-.4-4.2 0-6 .4-1.9.3-3.2-.3-3.2-.5 0-.6-.5-.3-1.1 1-1.5 1.2-7.9.3-7.9-.3 0-.3-1.2.1-2.8.4-1.5.5-3.8.1-5.2-.4-1.4-.3-3.7.1-5.3.5-1.6.4-2.7-.2-2.7-.6 0-.6-.7 0-1.9.6-1 .8-2.1.5-2.4-.6-.5-.7-7.2-.3-16 .1-2.6-.1-5-.4-5.3-.3-.3-.1-1.9.3-3.5.5-1.8.5-2.9-.1-2.9s-.6-.7 0-1.9c.6-1 .8-2.1.5-2.4-.4-.3-.6-5.3-.5-11.1.2-11 .2-12.1.1-15.9 0-1.2.1-3.6.3-5.3.2-1.8 0-4-.4-5-.3-1.1-.3-3.1.2-4.7.4-1.5.4-2.7-.1-2.7s-.5-1.3 0-3c.5-1.9.5-3.2-.2-3.6-.6-.4-.6-1 0-1.6.7-.7.7-1.9.2-3.4-.6-1.4-.6-2.4 0-2.4.5 0 .5-1.2 0-2.9-.4-1.5-.4-3.4 0-4.2.5-.7.4-2.1-.1-3.1s-.6-1.8-.2-1.8c1.2 0 1-5-.2-5.1-.5 0-48.9-.1-107.5-.1-102.7 0-106.7-.1-110.5-1.9-8-3.9-12.3-10.6-11.9-18.4.3-3.5.8-6.9 1.4-8.5.1-.3.2-.8.1-1.2 0-.3 1.5-2.3 3.4-4.3 6.9-7.6-13.8-7 244.2-7l231.1.1 3.9 2.7z"/></svg>